<?xml version="1.0" encoding="UTF-8"?>
<svg id="title" xmlns="http://www.w3.org/2000/svg" viewBox="0 0 590.54 185.68">
  <defs>
    <style>
      .cls-1 {
        fill: #fff;
      }
    </style>
  </defs>
  <g id="kasumi">
    <path class="cls-1" d="M133.28,68.52l-14.64,11.28s-22.32-25.8-24.6-29.4l-5.88,3.36s.84,16.32,1.32,23.52l-19.92-.24s.36-59.28.24-73.2l19.08-.48v26.28s20.28-16.08,30.72-24.96l10.2,17.28s-14.28,7.68-26.88,15.36c0,0,18.6,20.04,30.36,31.2Z"/>
    <path class="cls-1" d="M184.24,0c13.68,22.44,34.32,61.32,41.76,77.16,0,0-16.92,1.56-22.56,1.56,0,0-3.72-11.28-6.72-18.6,0,0-10.2.12-24.6.36l-7.2,17.28s-10.68-1.8-18.36-3.24C170.32,23.28,171.28,23.4,184.24,0ZM191.56,42.6c-3.36-7.56-8.28-17.16-8.28-17.16l-7.44,17.64c7.8.24,15.72-.48,15.72-.48Z"/>
    <path class="cls-1" d="M262.06,79.08c-13.68,0-23.52-8.88-26.16-16.92l11.4-10.8c1.44,6,5.88,12.24,13.8,12.96,4.68.36,9.48-.84,9.96-6.84,1.08-13.68-24.96-11.28-29.88-29.16-3.48-12.96,4.56-24.6,20.16-25.92,14.52-1.2,26.64,8.88,26.88,21.72l-15,2.28c.48-4.8-3-10.68-8.76-10.8-4.92-.12-8.52,2.04-8.64,6.24-.24,3.96,2.04,5.52,5.76,8.16,20.76,11.04,27.36,15.96,26.88,28.56-.36,8.52-7.08,20.64-26.4,20.52Z"/>
    <path class="cls-1" d="M373.67,24.54c5.33,14.3,2.23,26.27,2.07,27.41-2.3,16.89-21.42,30.25-38.55,27.93-18.3-2.48-26.19-11.71-30.86-22.82-2.75-6.54-4.38-25.36-2.22-29.56l16.67,2.56s-1.56,2-1.44,15.67c.12,14.78,10.74,19.22,18.7,19.03,8.52-.2,19.86-4.59,20.82-17.55.31-4.23.86-9.86-3.26-20.3l18.07-2.37Z"/>
    <path class="cls-1" d="M460.63,4.56l15.84-.48s1.44,65.16,2.04,72.96c0,0-16.2-.36-21.12-.6,0,0,.6-43.32.6-49.8,0,0-18.12,20.76-23.16,27,0,0-16.68-21.24-24.36-31.68,0,0,1.68,38.4,2.04,54.84l-18.48.24s-.12-47.16.6-72.72l18.6.36,22.08,26.64,25.32-26.76Z"/>
    <path class="cls-1" d="M497.67,77.4s.24-58.2-.24-73.32l18.84.48s.36,50.88.84,72.12c-9.12.24-11.64.24-19.44.72Z"/>
    <circle class="cls-1" cx="327.03" cy="10.29" r="6.19"/>
    <circle class="cls-1" cx="349.34" cy="12.5" r="6.19"/>
  </g>
  <g id="portfolio">
    <path class="cls-1" d="M54.12,135.98c1.2,22.92-18.36,31.32-37.2,30.48l-.84,16.56c-11.16.24-10.44.36-16.08.36.24-40.44.36-56.28.36-72.84,30.12-6.96,52.56,3,53.76,25.44ZM35.04,135.5c-1.56-10.2-9-12.36-19.32-11.76l.96,30c16.8,1.2,19.56-11.16,18.36-18.24Z"/>
    <path class="cls-1" d="M127.32,154.58c.6,16.08-9.96,30.6-25.8,31.08-19.32.6-30.84-10.92-31.32-30-.84-13.68,8.64-29.52,30-29.64,21.72-.12,26.76,18.96,27.12,28.56ZM100.08,141.38c-3.72-.72-13.2,1.08-13.44,12.48-.24,9.36,4.08,15,11.52,15.24,6.24.12,10.92-5.28,11.28-13.08.36-9-3.36-13.44-9.36-14.64Z"/>
    <path class="cls-1" d="M192.6,129.38l-.6,19.68c-4.92-2.64-9.12-4.32-14.88-3.96-6.24.48-11.52,2.04-13.32,10.08,0,0,1.32,25.92,1.56,28.8l-19.2.24s.36-46.2.12-57.6l17.04-.24-1.32,15.12c3.48-10.68,13.08-16.8,30.6-12.12Z"/>
    <path class="cls-1" d="M223.08,142.34s-6-1.32-11.4-1.92l-.48-12.6,14.28.12.24-15.48,16.2,1.2-.6,14.52,13.8.12-.12,12.36s-10.44.96-15.12.72c-.72,22.08-1.2,25.8,4.56,26.76,5.88.96,9.84-5.28,11.04-9.24l9,11.64c-5.28,9.12-13.08,15.12-23.76,13.68-19.8-2.64-18.12-25.44-17.64-41.88Z"/>
    <path class="cls-1" d="M300.12,149.9s-1.68.48-15.96,1.44l-.48-17.76,16.68.72s.36-8.88.48-12.36c.24-7.56,5.52-16.92,27-13.92l-.36,15.12c-12.24-1.68-13.68,0-13.08,10.68,0,0,12.6.24,19.56,0l-.6,17.64c-7.56-.12-10.44-.36-18.12-.24,0,0,.48,22.8,1.44,32.64l-17.76.24,1.2-34.2Z"/>
    <path class="cls-1" d="M410.63,154.58c.6,16.08-9.96,30.6-25.8,31.08-19.32.6-30.84-10.92-31.32-30-.84-13.68,8.64-29.52,30-29.64,21.72-.12,26.76,18.96,27.12,28.56ZM383.4,141.38c-3.72-.72-13.2,1.08-13.44,12.48-.24,9.36,4.08,15,11.52,15.24,6.24.12,10.92-5.28,11.28-13.08.36-9-3.36-13.44-9.36-14.64Z"/>
    <path class="cls-1" d="M453.36,110.66c-.96,27.24-.84,45.12-1.44,58.68l13.68-.24-1.2,15s-21-.24-28.8-.72c-.96-67.08-.96-67.68-.72-72.48l18.48-.24Z"/>
    <path class="cls-1" d="M509.75,105.02l.6,14.28s-8.52,1.44-14.04,1.8c0,0-1.92-8.4-2.52-14.76l15.96-1.32ZM495.72,128.3l15.48.24s.96,52.2.96,55.32l-18-.36s1.08-46.2,1.56-55.2Z"/>
    <path class="cls-1" d="M590.51,154.58c.6,16.08-9.96,30.6-25.8,31.08-19.32.6-30.84-10.92-31.32-30-.84-13.68,8.64-29.52,30-29.64,21.72-.12,26.76,18.96,27.12,28.56ZM563.27,141.38c-3.72-.72-13.2,1.08-13.44,12.48-.24,9.36,4.08,15,11.52,15.24,6.24.12,10.92-5.28,11.28-13.08.36-9-3.36-13.44-9.36-14.64Z"/>
  </g>
</svg>